# xmcd CD database file
#
# Track frame offsets:
#	150
#	20186
#	45711
#	70548
#	94761
#	119934
#
# Disc length: 1828 seconds
#
# Revision: 0
# Processed by: cddbd v1.5.2PL0 Copyright (c) Steve Scherf et al.
# Submitted via: CDex 1.51
#
DISCID=53072206
DTITLE=Alberto Plá - Learn Salsa with Elder Sanchez
DYEAR=2001
DGENRE=Salsa
TTITLE0=Cumbia Dominique
TTITLE1=Chu Chu Chu
TTITLE2=Loco de Amarte
TTITLE3=Mujer
TTITLE4=Portugal
TTITLE5=Pla Gozá
EXTD=YEAR: 2001
EXTT0=
EXTT1=
EXTT2=
EXTT3=
EXTT4=
EXTT5=
PLAYORDER=
